<svg version="1.2" xmlns="http://www.w3.org/2000/svg" viewBox="0 0 213 213" width="213" height="213">
	<title>modele 15 copie</title>
	<style>
		.s0 { fill: #1c2444 } 
		.s1 { fill: #f08051 } 
		.s2 { fill: #f8ab46 } 
		.s3 { fill: #00a1b5 } 
	</style>
	<g id="element_1">
		<path class="s0" d="m0 0v212.6h212.6v-212.6zm202.4 184.2h-18.2v18.2h-155.8v-18.2h-18.2v-155.8h18.2v-18.2h155.8v18.2h18.2zm-21.9-170.2h-148.4v18.2h-18.2v148.4h18.2v18.2h148.4v-18.2h18.2v-148.4h-18.2c0 0 0-18.2 0-18.2zm-162.6 140.2c-0.9 0-1.6-0.6-1.6-1.5 0-0.8 0.7-1.5 1.6-1.5 0.8 0 1.5 0.7 1.5 1.5 0 0.9-0.7 1.5-1.5 1.5zm0-7.6c-0.9 0-1.6-0.7-1.6-1.5 0-0.9 0.7-1.6 1.6-1.6 0.8 0 1.5 0.7 1.5 1.6 0 0.8-0.7 1.5-1.5 1.5zm0-7.7c-0.9 0-1.6-0.7-1.6-1.5 0-0.8 0.7-1.5 1.6-1.5 0.8 0 1.5 0.7 1.5 1.5 0 0.8-0.7 1.5-1.5 1.5zm0-7.6c-0.9 0-1.6-0.7-1.6-1.6 0-0.8 0.7-1.5 1.6-1.5 0.8 0 1.5 0.7 1.5 1.5 0 0.9-0.7 1.6-1.5 1.6zm0-7.7c-0.9 0-1.6-0.7-1.6-1.5 0-0.9 0.7-1.5 1.6-1.5 0.8 0 1.5 0.6 1.5 1.5 0 0.8-0.7 1.5-1.5 1.5zm0-31.8c-0.9 0-1.6-0.6-1.6-1.5 0-0.8 0.7-1.5 1.6-1.5 0.8 0 1.5 0.7 1.5 1.5 0 0.9-0.7 1.5-1.5 1.5zm0-7.6c-0.9 0-1.6-0.7-1.6-1.5 0-0.9 0.7-1.6 1.6-1.6 0.8 0 1.5 0.7 1.5 1.6 0 0.8-0.7 1.5-1.5 1.5zm0-7.7c-0.9 0-1.6-0.7-1.6-1.5 0-0.8 0.7-1.5 1.6-1.5 0.8 0 1.5 0.7 1.5 1.5 0 0.8-0.7 1.5-1.5 1.5zm0-7.6c-0.9 0-1.6-0.7-1.6-1.6 0-0.8 0.7-1.5 1.6-1.5 0.8 0 1.5 0.7 1.5 1.5 0 0.9-0.7 1.6-1.5 1.6zm0-7.7c-0.9 0-1.6-0.7-1.6-1.5 0-0.9 0.7-1.5 1.6-1.5 0.8 0 1.5 0.6 1.5 1.5 0 0.8-0.7 1.5-1.5 1.5zm0-7.7c-0.9 0-1.6-0.6-1.6-1.5 0-0.8 0.7-1.5 1.6-1.5 0.8 0 1.5 0.7 1.5 1.5 0 0.9-0.7 1.5-1.5 1.5zm0-7.6c-0.9 0-1.6-0.7-1.6-1.5 0-0.9 0.7-1.6 1.6-1.6 0.8 0 1.5 0.7 1.5 1.6 0 0.8-0.7 1.5-1.5 1.5zm142.4-29.5c0.8 0 1.5 0.7 1.5 1.5 0 0.9-0.7 1.6-1.5 1.6-0.8 0-1.5-0.7-1.5-1.6 0-0.8 0.6-1.5 1.5-1.5zm-2.2 28.1h9.7v9.7h-9.7zm-5.5-28.1c0.9 0 1.6 0.7 1.6 1.6 0 0.8-0.7 1.5-1.6 1.5-0.8 0-1.5-0.7-1.5-1.5 0-0.9 0.7-1.6 1.5-1.6zm-15.3 0c0.9 0 1.5 0.7 1.5 1.6 0 0.8-0.6 1.5-1.5 1.5-0.8 0-1.5-0.7-1.5-1.5 0-0.9 0.7-1.6 1.5-1.6zm-7.6 0c0.8 0 1.5 0.7 1.5 1.6 0 0.8-0.7 1.5-1.5 1.5-0.9 0-1.6-0.7-1.6-1.5 0-0.9 0.7-1.6 1.6-1.6zm-7.7 0c0.8 0 1.5 0.7 1.5 1.6 0 0.8-0.7 1.5-1.5 1.5-0.8 0-1.5-0.7-1.5-1.5 0-0.9 0.6-1.6 1.5-1.6zm0.9 51.7h21.4v21.3c0 3.7-1.2 7-3.2 9.8-10-5.8-22.9-4.5-31.6 3.7q-0.1 0-0.1 0c8.3-8.8 9.5-21.7 3.8-31.7 2.7-2 6.1-3.1 9.7-3.1zm-19.3-15.5c1.4-1.4 3.6-1.4 5 0 1.4 1.4 1.4 3.6 0 5-1.4 1.4-3.6 1.4-5 0-1.4-1.4-1.4-3.6 0-5zm-13.4-36.2c0.9 0 1.6 0.7 1.6 1.6 0 0.8-0.7 1.5-1.6 1.5-0.8 0-1.5-0.7-1.5-1.5 0-0.9 0.7-1.6 1.5-1.6zm-7.6 0c0.8 0 1.5 0.7 1.5 1.6 0 0.8-0.7 1.5-1.5 1.5-0.9 0-1.5-0.7-1.5-1.5-0.1-0.9 0.6-1.6 1.5-1.6zm-7.7 0c0.9 0 1.5 0.7 1.5 1.6 0 0.8-0.6 1.5-1.5 1.5-0.8 0-1.5-0.7-1.5-1.5 0-0.9 0.7-1.6 1.5-1.6zm-7.6 0c0.8 0 1.5 0.7 1.5 1.6 0 0.8-0.7 1.5-1.5 1.5-0.9 0-1.6-0.7-1.6-1.5 0-0.9 0.7-1.6 1.6-1.6zm-15.4 0c0.9 0 1.6 0.7 1.6 1.6 0 0.8-0.7 1.5-1.6 1.5-0.8 0-1.5-0.7-1.5-1.5 0-0.9 0.7-1.6 1.5-1.6zm2.2 28.1v9.7h-9.7v-9.7zm-9.8-28.1c0.8 0 1.5 0.7 1.5 1.6 0 0.8-0.7 1.5-1.5 1.5-0.9 0-1.6-0.7-1.6-1.5 0-0.9 0.7-1.6 1.6-1.6zm0 179.6c-0.9 0-1.6-0.7-1.6-1.5 0-0.9 0.7-1.5 1.6-1.5 0.8 0 1.5 0.6 1.5 1.5 0 0.8-0.7 1.5-1.5 1.5zm7.6 0c-0.8 0-1.5-0.7-1.5-1.5 0-0.9 0.7-1.5 1.5-1.5 0.9 0 1.5 0.6 1.5 1.5 0 0.8-0.6 1.5-1.5 1.5zm1.7-28.8h-9.7l0.1-9.8 9.7 0.1zm-1.2-58.1c-1.4-1.4-1.4-3.7 0-5.1 1.4-1.4 3.7-1.4 5.1 0 1.4 1.4 1.4 3.7 0 5.1-1.4 1.4-3.7 1.4-5.1 0zm7.1 86.9c-0.8 0-1.5-0.7-1.5-1.5 0-0.9 0.7-1.6 1.5-1.6 0.9 0 1.6 0.7 1.6 1.6 0 0.8-0.7 1.5-1.6 1.5zm0-176.5c-0.8 0-1.5-0.7-1.5-1.5 0-0.9 0.7-1.6 1.5-1.6 0.9 0 1.6 0.7 1.6 1.6 0 0.8-0.7 1.5-1.6 1.5zm7.7 176.5c-0.8 0-1.5-0.7-1.5-1.5 0-0.9 0.7-1.6 1.5-1.6 0.8 0 1.5 0.7 1.5 1.6 0 0.8-0.7 1.5-1.5 1.5zm7.7 0c-0.9 0-1.6-0.7-1.6-1.5 0-0.9 0.7-1.6 1.6-1.6 0.8 0 1.5 0.7 1.5 1.6 0 0.8-0.7 1.5-1.5 1.5zm7.6 0c-0.8 0-1.5-0.7-1.5-1.5 0-0.9 0.7-1.6 1.5-1.6 0.9 0 1.5 0.7 1.5 1.6 0 0.8-0.6 1.5-1.5 1.5zm7.7 0c-0.9 0-1.5-0.7-1.5-1.5 0-0.9 0.6-1.6 1.5-1.6 0.8 0 1.5 0.7 1.5 1.6 0 0.8-0.7 1.5-1.5 1.5zm8.8-54.8c-2.7 2-6.1 3.2-9.7 3.2h-21.4v-21.4c0-3.6 1.2-7 3.1-9.8 10 5.8 22.9 4.6 31.7-3.7q0 0 0 0.1c-8.2 8.7-9.5 21.6-3.7 31.6zm3.7-38.3c-8.7-8.3-21.7-9.5-31.7-3.7-1.9-2.8-3.1-6.2-3.1-9.8v-21.4h21.4c3.6 0 7 1.2 9.7 3.2-5.7 10-4.5 22.9 3.8 31.6q-0.1 0.1-0.1 0.1zm6.3 57.3c-1.4 1.4-3.7 1.4-5.1 0-1.4-1.4-1.4-3.6 0-5.1 1.4-1.4 3.7-1.4 5.1 0 1.4 1.5 1.4 3.7 0 5.1zm0.4-50.6q0 0 0-0.1c8.8 8.3 21.7 9.5 31.7 3.8 2 2.7 3.1 6.1 3.1 9.7v21.4h-21.3c-3.7 0-7-1.2-9.8-3.2 5.8-10 4.5-22.9-3.7-31.6zm12.5 86.4c-0.8 0-1.5-0.7-1.5-1.5 0-0.9 0.7-1.6 1.5-1.6 0.9 0 1.6 0.7 1.6 1.6 0 0.8-0.7 1.5-1.6 1.5zm7.7 0c-0.8 0-1.5-0.7-1.5-1.5 0-0.9 0.7-1.6 1.5-1.6 0.8 0 1.5 0.7 1.5 1.6 0 0.8-0.7 1.5-1.5 1.5zm7.7 0c-0.9 0-1.6-0.7-1.6-1.5 0-0.9 0.7-1.6 1.6-1.6 0.8 0 1.5 0.7 1.5 1.6 0 0.8-0.7 1.5-1.5 1.5zm7.6 0c-0.8 0-1.5-0.7-1.5-1.5 0-0.9 0.7-1.6 1.5-1.6 0.9 0 1.5 0.7 1.5 1.6 0 0.8-0.6 1.5-1.5 1.5zm0-176.5c-0.8 0-1.5-0.7-1.5-1.5 0-0.9 0.7-1.6 1.5-1.6 0.9 0 1.5 0.7 1.5 1.6 0 0.8-0.6 1.5-1.5 1.5zm7.7 176.5c-0.9 0-1.5-0.7-1.5-1.5 0-0.9 0.6-1.6 1.5-1.6 0.8 0 1.5 0.7 1.5 1.6 0 0.8-0.7 1.5-1.5 1.5zm2.4-87.3c-1.4-1.4-1.4-3.6 0-5 1.4-1.4 3.7-1.4 5.1 0 1.4 1.4 1.4 3.6 0 5-1.4 1.4-3.7 1.4-5.1 0zm2.7 49.6h9.7l-0.1 9.7h-9.7zm2.6 37.7c-0.9 0-1.5-0.7-1.5-1.5 0-0.9 0.6-1.5 1.5-1.5 0.8 0 1.5 0.6 1.5 1.5 0 0.8-0.7 1.5-1.5 1.5zm7.6 0c-0.8 0-1.5-0.7-1.5-1.5 0-0.9 0.7-1.5 1.5-1.5 0.9 0 1.5 0.6 1.5 1.5 0.1 0.8-0.6 1.5-1.5 1.5zm0-176.5c-0.8 0-1.5-0.7-1.5-1.5 0-0.9 0.7-1.5 1.5-1.5 0.9 0 1.5 0.6 1.5 1.5 0.1 0.8-0.6 1.5-1.5 1.5zm26.4 23.4c0.9 0 1.6 0.6 1.6 1.5 0 0.8-0.7 1.5-1.6 1.5-0.8 0-1.5-0.7-1.5-1.5 0-0.9 0.7-1.5 1.5-1.5zm0 7.6c0.9 0 1.6 0.7 1.6 1.5 0 0.9-0.7 1.6-1.6 1.6-0.8 0-1.5-0.7-1.5-1.6 0-0.8 0.7-1.5 1.5-1.5zm0 7.7c0.9 0 1.6 0.7 1.6 1.5 0 0.8-0.7 1.5-1.6 1.5-0.8 0-1.5-0.7-1.5-1.5 0-0.8 0.7-1.5 1.5-1.5zm0 7.6c0.9 0 1.6 0.7 1.6 1.6 0 0.8-0.7 1.5-1.6 1.5-0.8 0-1.5-0.7-1.5-1.5 0-0.9 0.7-1.6 1.5-1.6zm0 7.7c0.9 0 1.6 0.7 1.6 1.5 0 0.8-0.7 1.5-1.6 1.5-0.8 0-1.5-0.7-1.5-1.5 0-0.8 0.7-1.5 1.5-1.5zm0 7.7c0.9 0 1.6 0.6 1.6 1.5 0 0.8-0.7 1.5-1.6 1.5-0.8 0-1.5-0.7-1.5-1.5 0-0.9 0.7-1.5 1.5-1.5zm0 7.6c0.9 0 1.6 0.7 1.6 1.5 0 0.9-0.7 1.5-1.6 1.5-0.8 0-1.5-0.6-1.5-1.5 0-0.8 0.7-1.5 1.5-1.5zm0 31.8c0.9 0 1.6 0.7 1.6 1.5 0 0.8-0.7 1.5-1.6 1.5-0.8 0-1.5-0.7-1.5-1.5 0-0.8 0.7-1.5 1.5-1.5zm0 7.6c0.9 0 1.6 0.7 1.6 1.6 0 0.8-0.7 1.5-1.6 1.5-0.8 0-1.5-0.7-1.5-1.5 0-0.9 0.7-1.6 1.5-1.6zm0 7.7c0.9 0 1.6 0.7 1.6 1.5 0 0.9-0.7 1.5-1.6 1.5-0.8 0-1.5-0.6-1.5-1.5 0-0.8 0.7-1.5 1.5-1.5zm0 7.7c0.9-0.1 1.6 0.6 1.6 1.5 0 0.8-0.7 1.5-1.6 1.5-0.8 0-1.5-0.7-1.5-1.5 0-0.9 0.7-1.6 1.5-1.6zm0 7.7c0.9 0 1.6 0.7 1.6 1.5 0 0.9-0.7 1.6-1.6 1.6-0.8 0-1.5-0.7-1.5-1.6 0-0.8 0.7-1.5 1.5-1.5zm0 7.7c0.9 0 1.6 0.7 1.6 1.5 0 0.8-0.7 1.5-1.6 1.5-0.8 0-1.5-0.7-1.5-1.5 0-0.9 0.7-1.5 1.5-1.5zm0 7.6c0.9 0 1.6 0.7 1.6 1.6 0 0.8-0.7 1.5-1.6 1.5-0.8 0-1.5-0.7-1.5-1.5 0-0.9 0.7-1.6 1.5-1.6zm-176.5 3.1c-0.8 0-1.5-0.7-1.5-1.5 0-0.9 0.7-1.6 1.5-1.6 0.9 0 1.6 0.7 1.6 1.6 0 0.8-0.7 1.5-1.6 1.5zm0-7.7c-0.8 0-1.5-0.7-1.5-1.5 0-0.8 0.7-1.5 1.5-1.5 0.9 0 1.6 0.7 1.6 1.5 0 0.8-0.7 1.5-1.6 1.5z"/>
	</g>
	<g id="element_2">
		<path class="s1" d="m180.5 198.7h-11.4q-0.5-1.4-0.7-2.9c0.6-0.2 1.1-0.8 1.1-1.4 0-0.8-0.6-1.4-1.3-1.5v-24.7h24.7c0.1 0.7 0.7 1.3 1.5 1.3 0.7 0 1.2-0.5 1.4-1.1q1.5 0.2 2.9 0.6v11.5h-18.2zm-11.5-184.9q-0.3 1.3-0.5 2.6c0.6 0.2 1 0.8 1 1.4 0 0.8-0.6 1.4-1.3 1.5q0 0.1 0 0.2v24.9h24.7q0-0.1-0.1-0.2c0-0.8 0.7-1.5 1.6-1.5 0.8 0 1.4 0.6 1.5 1.4q1.4-0.2 2.8-0.6v-11.4h-18.2v-18.3zm-158.9 28.2v-13.6h18.3v-18.2h13.6c-3.4-6.1-9.8-10.2-17.2-10.2h-24.9v24.8c0 7.4 4.2 13.9 10.2 17.2zm33.4 156.7q0.4-1.4 0.6-2.9c-0.8 0-1.4-0.7-1.4-1.5 0-0.8 0.7-1.5 1.5-1.5q0.1 0 0.1 0v-24.6h-24.8q-0.1 0-0.2 0c-0.1 0.7-0.7 1.2-1.5 1.2-0.7 0-1.2-0.4-1.4-1q-1.3 0.2-2.6 0.6v11.4h18.2v18.3c0 0 11.5 0 11.5 0zm144.2-198.7c-7.4 0-13.9 4.1-17.2 10.2h13.6v18.2h18.2v13.6c6.1-3.3 10.2-9.8 10.2-17.2v-24.8zm14.7 170.5v13.6h-18.2v18.3h-13.6c3.3 6 9.7 10.2 17.1 10.2h24.9v-24.9c0-7.4-4.1-13.9-10.2-17.2zm-170.3-138.4h-18.2v11.4q1.2 0.4 2.4 0.6c0.1-0.8 0.8-1.4 1.6-1.4 0.8 0 1.5 0.7 1.5 1.5q0 0.1 0 0.1 0 0 0.1 0h24.9v-24.8q0-0.1 0-0.2-0.1 0-0.1 0c-0.9 0-1.6-0.6-1.6-1.5 0-0.8 0.6-1.4 1.4-1.5q-0.2-1.3-0.6-2.5h-11.4zm-3.7 170.3v-18.2h-18.2v-13.6c-6.1 3.3-10.2 9.7-10.2 17.2v24.8h24.9c7.4 0 13.8-4.1 17.1-10.2z"/>
	</g>
	<g id="element_3">
		<g>
			<path class="s2" d="m158.5 79.1h-8.8l0.1-16.2h-7.6l-8.7-0.2v-8.8c0-14.9-12.2-27.1-27.2-27.1-15 0-27.2 12.2-27.2 27.3v8.8h-16.3l0.1 16.2h-8.8c-15 0-27.2 12.2-27.2 27.2 0 15 12.2 27.2 27.2 27.2h8.8v16.3h16.2v8.7c0.1 14.9 12.3 27 27.2 27 14.9 0 27.1-12.1 27.2-27v-8.7h16.3v-16.3h8.7c15 0 27.2-12.2 27.2-27.2 0-15-12.2-27.2-27.2-27.2zm-101 29.9c-1.4 1.4-3.6 1.4-5 0-1.4-1.4-1.4-3.7 0-5.1 1.4-1.4 3.6-1.4 5 0 1.4 1.5 1.4 3.7 0 5.1zm46.1-56.5c1.4-1.4 3.6-1.4 5.1 0 1.4 1.4 1.4 3.6 0 5-1.4 1.4-3.7 1.4-5.1 0-1.4-1.4-1.4-3.6 0-5zm5.4 107.6c-1.4 1.4-3.7 1.4-5.1 0-1.4-1.4-1.4-3.6 0-5 1.4-1.4 3.7-1.4 5.1 0 1.4 1.4 1.4 3.6 0 5zm35.3-70.8c0 3.7-1.2 7-3.1 9.8-10-5.8-23-4.5-31.7 3.7 0.8 0.9 1.4 2 1.4 3.3 0 1.3-0.6 2.5-1.4 3.3 8.7 8.3 21.7 9.5 31.7 3.8 1.9 2.7 3.1 6.1 3.1 9.7v21.4h-21.4c-3.6 0-7-1.2-9.7-3.2 5.7-10 4.5-22.9-3.7-31.6-0.9 0.8-2.1 1.4-3.4 1.4-1.3 0-2.5-0.6-3.3-1.4-8.2 8.7-9.5 21.7-3.7 31.6-2.8 2-6.1 3.2-9.8 3.2h-21.3v-21.4c0-3.6 1.1-7 3.1-9.7 10 5.7 22.9 4.5 31.6-3.8-0.8-0.8-1.3-2-1.3-3.3 0-1.3 0.5-2.4 1.4-3.3-8.8-8.3-21.7-9.5-31.7-3.7-2-2.8-3.1-6.1-3.1-9.8v-21.3h21.3c3.7 0 7 1.1 9.8 3.1-5.8 10-4.5 22.9 3.7 31.7 0.9-0.9 2-1.4 3.3-1.4 1.3 0 2.5 0.5 3.3 1.4 8.3-8.8 9.5-21.7 3.8-31.7 2.7-2 6.1-3.2 9.7-3.2h21.4c0 0 0 21.4 0 21.4zm15.8 19.4c-1.4 1.4-3.6 1.4-5 0-1.4-1.4-1.4-3.7 0-5.1 1.4-1.4 3.6-1.4 5 0 1.4 1.4 1.4 3.7 0 5.1z"/>
			<path class="s2" d="m194.4 106.3c0-19.8-16.1-35.9-35.9-35.9v-16.3h-0.4-15.9v-0.2c0-19.8-16.1-35.9-35.9-35.9-19.8 0-35.9 16.1-35.9 35.9v0.2h-16.3v16.3c-19.9 0-35.9 16.1-35.9 35.9 0 19.9 16 36 35.9 36v16.2h16.3c0.1 19.8 16.1 35.8 35.9 35.8 19.8 0 35.8-16 35.9-35.8h15.5v-0.3h0.8v-15.9c19.8 0 35.9-16.1 35.9-36zm-35.9 29.7h-6.3v16.3h-16.2v6.2c-0.1 16.3-13.4 29.5-29.7 29.5-16.3 0-29.6-13.2-29.7-29.5v-6.2h-16.3v-16.3h-6.2c-16.4 0-29.7-13.3-29.7-29.7 0-16.4 13.3-29.7 29.7-29.7h6.2v-16.2h16.3v-6.3c0-16.4 13.3-29.8 29.7-29.8 16.4 0 29.7 13.3 29.7 29.7v6.2l6.3 0.2h9.9v16.2h6.3c16.4 0 29.7 13.4 29.7 29.7 0 16.4-13.3 29.7-29.7 29.7z"/>
		</g>
	</g>
	<g id="element_4">
		<g>
			<path class="s3" d="m106.1 101.4c1.3 0 2.5 0.5 3.3 1.4 9.9-10.5 9.8-27-0.5-37.3l-2.8-2.8-2.8 2.8c-10.2 10.3-10.4 26.8-0.5 37.3 0.9-0.9 2-1.4 3.3-1.4z"/>
			<path class="s3" d="m101.4 106.1c0-1.3 0.5-2.4 1.4-3.3-10.5-9.9-27-9.7-37.3 0.5l-2.8 2.8 2.8 2.8c10.3 10.3 26.8 10.4 37.2 0.6-0.8-0.9-1.3-2.1-1.3-3.4z"/>
			<path class="s3" d="m106.1 110.9c-1.3 0-2.5-0.6-3.3-1.4-9.9 10.5-9.7 27 0.5 37.2l2.8 2.8 2.8-2.8c10.3-10.2 10.5-26.7 0.6-37.2-0.9 0.8-2.1 1.4-3.4 1.4z"/>
			<path class="s3" d="m146.7 103.3c-10.2-10.2-26.8-10.4-37.2-0.5 0.8 0.9 1.3 2 1.3 3.3 0 1.3-0.5 2.5-1.3 3.4 10.5 9.8 27 9.7 37.2-0.6l2.8-2.8z"/>
		</g>
	</g>
</svg>